<svg xmlns="http://www.w3.org/2000/svg" xmlns:xlink="http://www.w3.org/1999/xlink" viewBox="0,0,256,256" width="50px" height="50px"><g fill="#48c43c" fill-rule="nonzero" stroke="none" stroke-width="1" stroke-linecap="butt" stroke-linejoin="miter" stroke-miterlimit="10" stroke-dasharray="" stroke-dashoffset="0" font-family="none" font-weight="none" font-size="none" text-anchor="none" style="mix-blend-mode: normal"><g transform="scale(5.12,5.12)"><path d="M14.5,3c-6.33944,0 -11.5,5.16056 -11.5,11.5v21c0,6.33944 5.16056,11.5 11.5,11.5h21c6.33944,0 11.5,-5.16056 11.5,-11.5v-21c0,-6.33944 -5.16056,-11.5 -11.5,-11.5zM14.5,5h21c5.25856,0 9.5,4.24144 9.5,9.5v21c0,5.25856 -4.24144,9.5 -9.5,9.5h-21c-5.25856,0 -9.5,-4.24144 -9.5,-9.5v-21c0,-5.25856 4.24144,-9.5 9.5,-9.5zM28.00391,9c-0.39155,-0.0014 -0.7479,0.22582 -0.91182,0.5814c-0.16392,0.35559 -0.10526,0.77412 0.1501,1.07094c0,0 3.66863,4.33821 3.75586,9.86328c0.01677,1.04412 -0.34901,2.42887 -0.67969,3.73047c-1.85903,-1.33787 -10.07923,-7.29403 -14.60156,-11.94336c-0.3632,-0.37333 -0.95212,-0.40539 -1.3537,-0.07372c-0.40159,0.33168 -0.48138,0.91605 -0.1834,1.34325c0,0 1.6317,2.33697 3.55664,4.92187c0.36338,0.48797 0.6552,0.74386 1.02539,1.23242c-1.94564,-1.37491 -3.82542,-2.64688 -7.10742,-5.48242c-0.38865,-0.33386 -0.96674,-0.32 -1.33895,0.03208c-0.37221,0.35209 -0.41813,0.92852 -0.10636,1.3351c0,0 2.55066,3.30402 5.71484,6.9707c2.75529,3.19285 5.79976,6.37688 8.37305,8.2793c-0.90603,0.51976 -2.31899,1.13612 -4.79687,1.13672c-2.78415,0.00093 -6.54778,-0.89452 -10.94531,-3.83008c-0.37934,-0.25288 -0.88169,-0.21722 -1.22149,0.08672c-0.3398,0.30394 -0.43105,0.79922 -0.22187,1.2043c0,0 5.50682,10.53997 18.01367,10.54102c2.85784,0 4.90488,-0.7705 6.4707,-1.49609c1.56582,-0.72559 2.62148,-1.31055 3.60352,-1.31055c2.08945,0 3.55273,2.3125 3.55273,2.3125c0.19255,0.32941 0.55575,0.52055 0.93629,0.49275c0.38054,-0.0278 0.7121,-0.26971 0.85473,-0.6236c0.9716,-2.40826 0.18295,-4.86496 -0.74023,-6.65039c-0.75215,-1.45464 -1.37694,-2.10981 -1.68359,-2.46484c0.30488,-0.65389 0.88001,-2.05346 0.88086,-4.38477c0.00107,-4.29325 -1.87261,-10.79176 -10.43164,-16.69727c-0.16591,-0.11483 -0.36268,-0.17679 -0.56445,-0.17773zM31.60156,14.37305c4.35547,4.37694 5.39917,8.55382 5.39844,11.50195c-0.00091,2.51885 -0.86719,4.00195 -0.86719,4.00195c-0.21675,0.378 -0.16382,0.85284 0.13086,1.17383c0,0 0.97316,1.06869 1.76172,2.59375c0.47962,0.92758 0.74542,1.96714 0.82422,3.00781c-0.88047,-0.74999 -2.07449,-1.45898 -3.65039,-1.45898c-1.68396,0 -2.98238,0.81818 -4.44531,1.49609c-1.46293,0.67791 -3.11974,1.31055 -5.62891,1.31055c-6.66473,-0.00056 -10.8569,-3.15085 -13.38086,-5.83789c2.92459,1.28972 5.57025,1.83667 7.75586,1.83594c4.47733,-0.0011 7.14844,-2.23633 7.14844,-2.23633c0.24625,-0.20969 0.37589,-0.52553 0.34797,-0.84777c-0.02792,-0.32223 -0.20995,-0.61107 -0.4886,-0.77528c-2.03819,-1.20022 -5.67503,-4.98399 -8.73633,-8.50195c0.85807,0.61403 1.81551,1.3223 2.46289,1.74023c2.12746,1.37345 3.2168,1.80859 3.2168,1.80859c0.4558,0.17662 0.97249,-0.00213 1.22171,-0.42266c0.24922,-0.42053 0.15793,-0.95959 -0.21585,-1.27461c-0.47652,-0.40001 -1.69739,-2.03397 -2.68164,-3.24219c4.44184,3.5508 8.64648,6.57031 8.64648,6.57031c0.25571,0.18062 0.58124,0.23109 0.87963,0.13635c0.29839,-0.09473 0.5352,-0.32373 0.6399,-0.61877c0.66695,-1.87639 1.08549,-4.0532 1.05664,-5.84961c-0.03718,-2.35476 -0.67078,-4.35707 -1.39648,-6.11133z"></path></g></g></svg>